PathFileType	4	(X/Y/Z)	C:\Users\WrightLab\Desktop\Jo\P5V31.trc
DataRate	CameraRate	NumFrames	NumMarkers	Units	OrigDataRate	OrigDataStartFrame	OrigNumFrames
100.00	100.00	       69	19	mm	100.00	114	       907
Frame#	Time	Headset_Front			Headset_Back			Headset_Left			Headset_Right			Left_Shoulder			Right_Shoulder			Sternum			C7			Left Elbow			Right Elbow			Left Wrist			Right Wrist			Left ASIS			Right ASIS			S2			Left Knee			Right Knee			Left Ankle			Right Ankle			
		X1	Y1	Z1	X2	Y2	Z2	X3	Y3	Z3	X4	Y4	Z4	X5	Y5	Z5	X6	Y6	Z6	X7	Y7	Z7	X8	Y8	Z8	X9	Y9	Z9	X10	Y10	Z10	X11	Y11	Z11	X12	Y12	Z12	X13	Y13	Z13	X14	Y14	Z14	X15	Y15	Z15	X16	Y16	Z16	X17	Y17	Z17	X18	Y18	Z18	X19	Y19	Z19	

114	1.130																																								-382.79199	937.45398	-1323.41833				-60.78807	476.81958	-1375.51501	-427.69125	466.29428	-1359.16809							
115	1.140																																								-383.32571	938.30688	-1321.22388				-60.75081	476.86987	-1375.29248	-427.67822	466.28973	-1359.16626							
116	1.150																																								-383.34604	938.32001	-1321.32239				-60.76136	476.83792	-1375.35339	-427.68732	466.27664	-1359.16577							
117	1.160																																								-383.72983	939.13104	-1320.19763				-60.73756	476.86011	-1375.21008	-427.68716	466.28104	-1359.16626							
118	1.170																																								-383.78571	939.13348	-1320.46252				-60.74506	476.82001	-1375.25146	-427.59476	466.43427	-1358.81091							
119	1.180																																								-383.78146	939.15369	-1320.44604				-60.70850	476.85788	-1375.03174	-427.54126	466.53168	-1358.46509							
120	1.190																																								-383.81296	939.15497	-1320.59534				-60.80807	476.66983	-1375.62024	-427.54248	466.71124	-1357.49487							
121	1.200																																								-383.81949	939.18866	-1320.63220				-60.75052	476.74039	-1375.27576	-427.52847	466.86792	-1356.70752							
122	1.210																																								-383.83240	939.19751	-1320.69482				-60.79528	476.62192	-1375.53625	-427.71512	466.64816	-1356.37646							
123	1.220																																								-383.87067	939.20868	-1320.87793				-60.77009	476.60574	-1375.37988	-427.73248	466.68549	-1355.83350							
124	1.230																																								-383.87259	939.20203	-1320.88586				-61.29809	476.73575	-1373.50391	-427.63275	466.85580	-1355.58850							
125	1.240																																								-383.88467	939.26862	-1320.95459				-61.79981	476.90973	-1371.47485	-427.43454	467.16998	-1355.13049							
126	1.250																																								-383.91476	939.30634	-1321.10339				-61.80912	476.85641	-1371.52563	-427.76154	467.08026	-1354.98035							
127	1.260																																								-383.94080	939.33813	-1321.23193				-61.86238	476.74442	-1371.83862	-427.74597	467.35492	-1353.79602							
128	1.270																																								-383.96988	939.32703	-1321.36768				-61.88271	476.67477	-1371.95508	-427.75836	467.43652	-1353.42737							
129	1.280																																								-384.03159	939.31488	-1321.65735				-61.96198	476.48373	-1372.41809	-427.76230	467.42209	-1353.42615							
130	1.290																																								-384.51236	939.81732	-1319.78027				-62.07632	476.18112	-1373.08276	-427.70633	467.54752	-1353.07275							
131	1.300																																								-385.27722	941.55603	-1316.84888				-62.18432	475.90866	-1373.71216	-428.02927	467.17661	-1352.79321							
132	1.310																																								-385.32758	941.62952	-1317.09912				-63.29374	477.11545	-1371.20728	-428.13239	467.06329	-1352.59180							
133	1.320																																								-385.39282	941.64166	-1317.40918				-64.59654	478.15170	-1368.02026	-427.88284	467.54163	-1352.02502							
134	1.330																																								-385.46521	941.63202	-1317.74915				-64.72231	477.78748	-1368.74426	-428.02768	467.33191	-1352.01733							
135	1.340																																								-385.52481	941.67743	-1318.03796				-65.34682	478.25330	-1367.64905	-428.03281	467.31888	-1352.01636							
136	1.350																																								-385.56042	941.72467	-1318.21375				-65.90410	478.10382	-1366.57825	-428.55624	467.03687	-1351.95667							
137	1.360																																								-385.59467	941.84869	-1318.39587				-66.48029	478.05759	-1365.07458	-428.57721	467.04532	-1351.95972							
138	1.370																																								-385.50671	942.94922	-1319.33313				-66.53906	477.86426	-1365.40918	-428.68271	467.02087	-1351.64880							
139	1.380																																								-385.55566	942.93756	-1319.56238				-66.56856	477.76755	-1365.57703	-428.82269	466.78918	-1351.95129							
140	1.390																																								-385.58530	942.92749	-1319.70044				-66.60698	477.66077	-1365.79822	-429.44733	466.75894	-1351.67664							
141	1.400																																								-385.72626	942.78931	-1320.34229				-66.62606	477.67273	-1365.91638	-429.91214	467.24750	-1351.67175							
142	1.410																																								-385.83838	942.72437	-1320.86035				-66.65417	477.63098	-1366.08289	-429.94235	467.23328	-1351.67322							
143	1.420																																								-385.98102	942.53235	-1321.50098				-66.67480	477.57370	-1366.20166	-431.04718	467.73477	-1351.43127							
144	1.430																																								-386.14264	942.31689	-1322.22729				-66.71342	477.38196	-1366.41309	-431.11438	467.71259	-1351.43567							
145	1.440																																								-386.83066	943.00067	-1320.21790				-66.78123	477.26175	-1366.81226	-431.77594	467.14844	-1351.92847							
146	1.450																																								-386.94006	942.87695	-1320.71289				-66.83380	477.12790	-1367.11633	-432.08713	467.03183	-1352.11060							
147	1.460																																								-387.36838	942.49725	-1320.04053				-67.12486	476.59790	-1366.75024	-432.72369	467.44501	-1352.05042							
148	1.470																																								-387.51239	942.27728	-1320.68225				-67.22016	476.32684	-1367.29810	-432.84583	467.52228	-1352.07166							
149	1.480																																								-387.63907	942.06342	-1321.24329				-67.34672	476.00461	-1368.03027	-432.98172	467.57825	-1352.09180							
150	1.490																																								-387.78152	941.87695	-1321.88318				-67.80750	476.62827	-1367.04724	-433.03619	467.58743	-1352.09839							
151	1.500																																								-387.93408	941.64752	-1322.56348				-67.95009	476.28049	-1367.87329	-432.98007	467.97702	-1353.30200							
152	1.510																																								-388.16074	941.34937	-1323.58130				-68.08843	475.95343	-1368.67603	-433.23813	467.44803	-1352.33398							
153	1.520																																								-388.75803	941.56287	-1322.20752				-68.97157	476.09970	-1365.55225	-432.83176	468.14944	-1353.10571							
154	1.530																																								-388.95612	941.26379	-1323.09009				-69.72698	476.75192	-1363.73157	-433.09711	467.64847	-1352.11145							
155	1.540																																								-389.13318	940.99774	-1323.87903				-70.51042	477.34747	-1362.07800	-433.08160	467.64053	-1352.10901							
156	1.550																																								-389.32767	940.79565	-1324.76111				-71.26571	477.45142	-1360.80469	-433.06061	467.64816	-1352.10767							
157	1.560																																								-389.50537	940.54895	-1325.55640				-71.65379	476.94589	-1360.48157	-433.04681	467.66589	-1352.10828							
158	1.570																																								-389.67462	940.36792	-1326.32300				-71.94846	476.44333	-1362.20886	-433.10004	467.69025	-1352.11646							
159	1.580																																								-389.83331	940.14813	-1327.03333				-72.17009	476.03079	-1363.50342	-433.14001	467.70480	-1352.12219							
160	1.590																																								-389.96286	939.98730	-1327.61633				-72.78627	476.43610	-1363.44446	-433.26627	467.48877	-1352.34143							
161	1.600																																								-390.11066	939.82928	-1328.28577				-73.05239	475.94113	-1364.99829	-433.86551	468.07666	-1352.33337							
162	1.610																																								-390.17181	939.71960	-1328.55530				-73.33247	475.37225	-1366.62732	-434.23776	467.65146	-1352.91785							
163	1.620																																								-390.24423	939.59100	-1328.87476				-73.85050	474.38800	-1367.58130	-434.23639	467.80838	-1352.98364							
164	1.630																																								-390.27670	939.53479	-1329.01819				-74.04677	473.95416	-1368.71814	-434.70917	467.55875	-1353.08813							
165	1.640																																								-390.35077	939.37640	-1329.34021				-74.34501	474.18240	-1370.02942	-434.96158	467.46826	-1353.46606							
166	1.650																																								-390.38959	939.29089	-1329.50854				-74.89137	474.67627	-1369.45837	-435.20663	467.59015	-1353.50452							
167	1.660																																								-390.47449	939.15979	-1329.88623				-75.55112	474.78827	-1368.14417	-435.29575	467.66345	-1353.52173							
168	1.670																																								-390.54855	939.00946	-1330.20947				-75.80112	475.54501	-1368.03845	-435.43216	467.53235	-1353.88318							
169	1.680																																								-390.63040	938.81964	-1330.56274				-75.90206	475.39212	-1368.63147	-436.37457	467.64966	-1354.33948							
170	1.690																																								-390.75537	938.58789	-1331.11182				-75.95638	475.27518	-1368.94580	-436.38190	467.65121	-1354.72314							
171	1.700																																								-391.22159	938.55597	-1329.40125				-75.98135	475.25751	-1369.09521	-436.58325	467.51691	-1354.93542							
172	1.710																																								-391.31857	938.42584	-1329.83582				-76.65395	476.11487	-1366.80518	-436.73566	467.29297	-1355.33228							
173	1.720																																								-391.41699	938.28833	-1330.27576				-76.72347	475.93640	-1367.20325	-436.76938	467.30493	-1355.33704							
174	1.730																																								-391.45636	938.23163	-1330.45154				-76.74304	475.90976	-1367.31860	-436.76382	467.37076	-1354.99536							
175	1.740																																								-391.50903	938.17010	-1330.68909				-76.81538	475.77747	-1367.73999	-436.76721	467.29092	-1355.33521							
176	1.750																																								-391.56418	938.13641	-1330.94324				-77.77583	476.47321	-1363.91541	-436.80472	467.36630	-1354.66321							
177	1.760																																								-391.60861	938.06146	-1331.13953				-77.82692	476.36191	-1364.21021	-436.75296	467.28543	-1355.33313							
178	1.770																																								-391.64548	937.96692	-1331.29688				-78.39639	476.74969	-1362.50427	-436.75073	467.28702	-1355.33313							
179	1.780																																								-391.67230	937.91876	-1331.41504				-78.42638	476.66528	-1362.67468	-436.69562	467.28424	-1355.63330							
180	1.790																																								-391.74313	937.83228	-1331.73389				-78.43320	476.66165	-1362.71558	-436.54526	467.44601	-1355.60791							
181	1.800																																								-391.79724	937.71277	-1331.96814				-78.46207	476.58566	-1362.88025	-436.53275	467.38553	-1355.99463							
182	1.810																																								-391.84598	937.58075	-1332.17493				-78.49989	476.51663	-1363.09998	-436.53003	467.39401	-1355.99536							
